HIERARCHY
ROOT Hips
{
	OFFSET -0.001795 -0.223333 0.028219
	CHANNELS 6 Xposition Yposition Zposition Zrotation Yrotation Xrotation 
	JOINT LeftUpLeg
	{
		OFFSET 0.069520 -0.091406 -0.006815
		CHANNELS 3 Zrotation Yrotation Xrotation
		JOINT LeftLeg
		{
			OFFSET 0.034277 -0.375199 -0.004496
			CHANNELS 3 Zrotation Yrotation Xrotation
			JOINT LeftFoot
			{
				OFFSET -0.013596 -0.397961 -0.043693
				CHANNELS 3 Zrotation Yrotation Xrotation
				JOINT LeftToe
				{
					OFFSET 0.026358 -0.055791 0.119288
					CHANNELS 3 Zrotation Yrotation Xrotation
					End Site
					{
						OFFSET 0.000000 0.000000 0.000000
					}
				}
			}
		}
	}
	JOINT RightUpLeg
	{
		OFFSET -0.067670 -0.090522 -0.004320
		CHANNELS 3 Zrotation Yrotation Xrotation
		JOINT RightLeg
		{
			OFFSET -0.038290 -0.382569 -0.008850
			CHANNELS 3 Zrotation Yrotation Xrotation
			JOINT RightFoot
			{
				OFFSET 0.015774 -0.398415 -0.042312
				CHANNELS 3 Zrotation Yrotation Xrotation
				JOINT RightToe
				{
					OFFSET -0.025372 -0.048144 0.123348
					CHANNELS 3 Zrotation Yrotation Xrotation
					End Site
					{
						OFFSET 0.000000 0.000000 0.000000
					}
				}
			}
		}
	}
	JOINT Spine
	{
		OFFSET -0.002533 0.108963 -0.026696
		CHANNELS 3 Zrotation Yrotation Xrotation
		JOINT Spine1
		{
			OFFSET 0.005487 0.135180 0.001092
			CHANNELS 3 Zrotation Yrotation Xrotation
			JOINT Spine2
			{
				OFFSET 0.001457 0.052922 0.025425
				CHANNELS 3 Zrotation Yrotation Xrotation
				JOINT Neck
				{
					OFFSET -0.002778 0.213870 -0.042857
					CHANNELS 3 Zrotation Yrotation Xrotation
					JOINT Head
					{
						OFFSET 0.005152 0.064970 0.051349
						CHANNELS 3 Zrotation Yrotation Xrotation
						End Site
						{
							OFFSET 0.000000 0.000000 0.000000
						}
					}
				}
				JOINT LeftShoulder
				{
					OFFSET 0.078845 0.121749 -0.034090
					CHANNELS 3 Zrotation Yrotation Xrotation
					JOINT LeftArm
					{
						OFFSET 0.090977 0.030469 -0.008868
						CHANNELS 3 Zrotation Yrotation Xrotation
						JOINT LeftForeArm
						{
							OFFSET 0.259612 -0.012772 -0.027456
							CHANNELS 3 Zrotation Yrotation Xrotation
							JOINT LeftHand
							{
								OFFSET 0.249234 0.008986 -0.001171
								CHANNELS 3 Zrotation Yrotation Xrotation
								End Site
								{
									OFFSET 0.000000 0.000000 0.000000
								}
							}
						}
					}
				}
				JOINT RightShoulder
				{
					OFFSET -0.081759 0.118833 -0.038615
					CHANNELS 3 Zrotation Yrotation Xrotation
					JOINT RightArm
					{
						OFFSET -0.096012 0.032551 -0.009143
						CHANNELS 3 Zrotation Yrotation Xrotation
						JOINT RightForeArm
						{
							OFFSET -0.253742 -0.013329 -0.021401
							CHANNELS 3 Zrotation Yrotation Xrotation
							JOINT RightHand
							{
								OFFSET -0.255298 0.007772 -0.005559
								CHANNELS 3 Zrotation Yrotation Xrotation
								End Site
								{
									OFFSET 0.000000 0.000000 0.000000
								}
							}
						}
					}
				}
			}
		}
	}
}
MOTION
Frames: 13
Frame Time: 0.050000
-0.301965 0.953319 0.778358 -2.861225 17.252850 -2.427767 3.405355 -0.356973 -3.848896 0.057307 -0.736431 11.853324 2.254914 4.157500 -0.566322 0.000000 0.000000 0.000000 3.894591 0.340758 -2.302578 -2.389892 0.610359 8.207356 -5.945877 -14.162423 13.655540 0.000000 0.000000 0.000000 -4.571052 -0.294935 12.876660 8.322717 -1.589502 -18.891021 1.468404 3.196596 24.919958 2.074843 2.710168 -27.989963 0.000000 0.000000 0.000000 -24.541029 -5.274815 -3.236014 -40.581411 -17.148571 0.171740 -132.702179 -84.682802 129.097347 0.000000 0.000000 0.000000 13.624805 14.754323 9.107067 34.500059 17.308062 -1.012988 -155.895416 81.652847 -139.787747 0.000000 0.000000 0.000000 
-0.302225 0.954057 0.771308 -2.888953 17.636428 -2.360051 3.397576 -0.347169 -3.645251 0.004235 -0.618273 10.468542 1.923540 3.683359 -0.236462 0.000000 0.000000 0.000000 3.491233 0.385550 -2.697089 -1.818020 0.484689 7.994199 -6.065710 -14.298534 14.153806 0.000000 0.000000 0.000000 -4.685152 -0.283088 12.732534 8.308547 -1.550244 -19.171160 1.733422 3.116435 25.008554 1.742089 2.933050 -28.193356 0.000000 0.000000 0.000000 -24.586642 -5.731397 -3.039387 -40.991657 -17.945690 0.437482 -134.591562 -85.252619 131.515137 0.000000 0.000000 0.000000 13.669000 15.043704 9.297188 35.300003 17.514534 -0.930371 -154.528543 82.358417 -138.583570 0.000000 0.000000 0.000000 
-0.301718 0.954774 0.766037 -2.783319 17.923755 -2.300713 3.197096 -0.317523 -3.185891 -0.003243 -0.505150 8.975698 1.617174 3.294765 0.133251 0.000000 0.000000 0.000000 3.014937 0.413739 -3.012978 -1.401228 0.394477 7.954089 -6.151353 -14.387073 14.571230 0.000000 0.000000 0.000000 -4.721625 -0.276518 12.603795 8.206911 -1.487941 -19.390352 1.917810 2.917648 25.094355 1.499760 3.069717 -28.297700 0.000000 0.000000 0.000000 -25.280224 -6.099612 -2.968253 -40.906722 -17.807656 0.426203 -133.701790 -85.116947 130.567701 0.000000 0.000000 0.000000 14.235147 15.156672 9.511475 36.028372 17.642730 -0.904576 -156.699123 83.327600 -141.626001 0.000000 0.000000 0.000000 
-0.300699 0.955462 0.762377 -2.826630 18.375961 -2.320967 3.044709 -0.273474 -2.456472 0.191872 -0.411518 7.228377 1.244585 2.759864 0.467706 0.000000 0.000000 0.000000 2.707251 0.426395 -3.181630 -0.994956 0.303553 7.931860 -6.316810 -14.598237 15.052906 0.000000 0.000000 0.000000 -4.852911 -0.257820 12.275234 8.408053 -1.546820 -19.332504 1.935165 2.751323 24.983471 1.000714 3.372881 -28.538941 0.000000 0.000000 0.000000 -25.670626 -6.334097 -2.966883 -41.213718 -17.443851 0.367064 -130.271219 -85.190799 126.985778 0.000000 0.000000 0.000000 14.839994 15.519524 9.890783 37.014033 17.552765 -0.914538 -155.231923 84.372489 -140.634043 0.000000 0.000000 0.000000 
-0.299495 0.956010 0.760120 -2.796761 18.395013 -2.302807 2.932351 -0.239095 -1.907362 0.147892 -0.326140 6.037829 1.087755 2.645758 0.773699 0.000000 0.000000 0.000000 2.501437 0.380717 -2.859351 -0.914358 0.281776 7.133611 -6.266187 -14.485792 15.314077 0.000000 0.000000 0.000000 -5.015837 -0.228234 11.894299 8.633378 -1.626198 -19.246847 1.981194 2.560018 24.923223 0.826004 3.419231 -28.268114 0.000000 0.000000 0.000000 -25.811428 -6.198214 -3.005326 -41.746932 -16.483836 0.047853 -125.467626 -84.659054 121.580313 0.000000 0.000000 0.000000 15.223183 15.678297 10.035380 38.006521 17.574718 -0.863131 -158.008816 85.567604 -144.426123 0.000000 0.000000 0.000000 
-0.298382 0.956386 0.759091 -2.743095 18.605359 -2.188453 2.848239 -0.211293 -1.427507 0.078612 -0.247086 4.877502 0.869460 2.384631 1.034140 0.000000 0.000000 0.000000 2.236871 0.344170 -2.621359 -0.703600 0.232141 6.467716 -6.313844 -14.532997 15.536617 0.000000 0.000000 0.000000 -5.386820 -0.178879 11.321889 8.816677 -1.675853 -19.301381 2.082769 2.250542 25.204641 0.440797 3.621427 -28.544017 0.000000 0.000000 0.000000 -25.885993 -5.954396 -3.105112 -41.992654 -16.333975 -0.038010 -118.923272 -84.505991 114.659646 0.000000 0.000000 0.000000 15.494701 16.072771 10.291813 38.962769 17.742229 -0.788593 -144.777254 86.827992 -131.349062 0.000000 0.000000 0.000000 
-0.297452 0.956403 0.758877 -2.724930 18.575504 -2.232590 2.825144 -0.171404 -0.695079 -0.007914 -0.172064 3.709680 0.778729 2.315397 1.203263 0.000000 0.000000 0.000000 2.199687 0.271773 -2.028907 -0.794623 0.240473 5.523416 -6.255792 -14.434845 15.581430 0.000000 0.000000 0.000000 -5.644316 -0.147907 10.946078 8.882787 -1.720788 -19.067488 2.258419 2.152950 25.242030 -0.156286 3.908896 -28.215447 0.000000 0.000000 0.000000 -25.756815 -5.678947 -3.194194 -42.063606 -16.080370 -0.150535 -118.266075 -84.889603 114.364110 0.000000 0.000000 0.000000 15.952935 16.238778 10.485611 39.577610 17.854729 -0.751353 -124.839925 87.364891 -111.320940 0.000000 0.000000 0.000000 
-0.296711 0.956079 0.759140 -2.605770 18.255313 -2.352328 2.799222 -0.127670 0.096902 -0.270964 -0.097579 2.766270 0.839812 2.490066 1.294569 0.000000 0.000000 0.000000 2.029160 0.194328 -1.431437 -0.824838 0.237927 4.793183 -6.063223 -14.151111 15.378377 0.000000 0.000000 0.000000 -6.051779 -0.111292 10.716196 9.042278 -1.776011 -19.151883 2.361727 2.438930 25.596636 -0.420789 4.089149 -28.411261 0.000000 0.000000 0.000000 -25.708987 -5.756374 -3.159651 -41.396826 -15.794773 -0.261456 -117.518086 -86.488262 115.021094 0.000000 0.000000 0.000000 16.752909 16.512798 10.880957 39.384908 18.387105 -0.670529 -90.262880 86.412837 -75.693961 0.000000 0.000000 0.000000 
-0.296203 0.955683 0.759377 -2.711677 18.083331 -2.397223 2.887459 -0.099520 0.774316 -0.285045 -0.048698 1.695353 0.858824 2.565045 1.358977 0.000000 0.000000 0.000000 2.104457 0.133524 -0.931631 -0.836229 0.225418 3.955277 -5.945903 -13.970404 15.298042 0.000000 0.000000 0.000000 -6.250513 -0.090034 10.409682 8.959646 -1.751920 -19.180089 2.520238 2.225963 25.765365 -0.528897 4.109480 -28.515120 0.000000 0.000000 0.000000 -25.609521 -5.809549 -2.985123 -40.695003 -16.462001 -0.106645 -59.043256 -89.178739 59.102737 0.000000 0.000000 0.000000 17.014722 16.945647 11.120256 39.060744 19.151605 -0.466519 -73.514187 84.146985 -57.472666 0.000000 0.000000 0.000000 
-0.296079 0.955231 0.759259 -2.749641 17.713865 -2.463350 2.961544 -0.076317 1.326129 -0.394647 -0.008115 0.924090 0.975922 2.819901 1.409735 0.000000 0.000000 0.000000 2.104824 0.107532 -0.731167 -0.821512 0.218230 3.655999 -5.757984 -13.690060 15.093207 0.000000 0.000000 0.000000 -6.482078 -0.071320 10.349219 9.114997 -1.806952 -19.265628 2.372313 2.242603 25.984547 -0.646317 4.165496 -29.015752 0.000000 0.000000 0.000000 -25.733788 -6.120251 -2.737588 -39.544828 -17.570296 0.198453 43.593784 -86.233458 -40.231553 0.000000 0.000000 0.000000 17.162986 17.884236 11.604629 38.096983 20.575904 -0.082664 -67.702239 80.119495 -48.942427 0.000000 0.000000 0.000000 
-0.296450 0.955053 0.758583 -2.868364 17.739633 -2.564453 3.148666 -0.084037 1.420235 -0.483580 0.003902 0.792795 0.965533 2.784943 1.386306 0.000000 0.000000 0.000000 2.225627 0.096446 -0.628663 -0.796907 0.210863 3.516947 -5.765113 -13.700563 15.101964 0.000000 0.000000 0.000000 -6.532960 -0.069930 10.313432 9.084990 -1.807270 -19.176490 2.290888 1.825593 25.970109 -0.611076 4.092100 -29.267737 0.000000 0.000000 0.000000 -25.453816 -6.909681 -2.060189 -38.817939 -19.357829 0.663489 47.330342 -80.657079 -39.915424 0.000000 0.000000 0.000000 17.126960 18.722755 11.942093 36.827789 22.151616 0.319229 -65.432868 75.384596 -43.554809 0.000000 0.000000 0.000000 
-0.297151 0.955207 0.757614 -3.055463 17.543769 -2.706991 3.275860 -0.089416 1.432586 -0.335514 -0.010165 0.858430 1.048312 2.958856 1.410762 0.000000 0.000000 0.000000 2.380932 0.080240 -0.490256 -0.700964 0.189980 3.278209 -5.645031 -13.504545 15.189627 0.000000 0.000000 0.000000 -6.450661 -0.081622 10.595589 9.044505 -1.776564 -19.442769 2.167676 1.450554 26.132535 -0.939232 4.195547 -29.353173 0.000000 0.000000 0.000000 -25.524619 -7.682923 -1.411988 -37.382725 -21.217272 1.077475 47.895215 -75.742704 -37.093761 0.000000 0.000000 0.000000 17.245079 19.579506 12.305030 35.419129 23.627716 0.636032 -64.570722 71.000093 -39.949375 0.000000 0.000000 0.000000 
-0.298117 0.955242 0.756692 -3.136489 17.463343 -2.757046 3.319786 -0.098799 1.244658 -0.197464 -0.031965 1.125887 1.100969 3.050324 1.393726 0.000000 0.000000 0.000000 2.510236 0.098331 -0.619022 -0.706592 0.194179 3.411276 -5.617011 -13.458564 15.202573 0.000000 0.000000 0.000000 -6.457050 -0.087777 10.911179 9.112829 -1.785507 -19.610521 2.043956 1.143473 26.109145 -0.859051 4.094847 -29.360675 0.000000 0.000000 0.000000 -25.217807 -8.436855 -0.773345 -36.271572 -22.828370 1.410792 47.648308 -71.146900 -34.019588 0.000000 0.000000 0.000000 17.017186 19.816363 12.275843 34.371356 25.216218 1.000038 -64.021672 67.252744 -37.020298 0.000000 0.000000 0.000000 
